<?xml version="1.0" standalone="no"?>
<!DOCTYPE svg PUBLIC "-//W3C//DTD SVG 20010904//EN"
 "http://www.w3.org/TR/2001/REC-SVG-20010904/DTD/svg10.dtd">
<svg version="1.0" xmlns="http://www.w3.org/2000/svg"
 width="5rem" height="5rem" viewBox="0 0 300.000000 161.000000"
 preserveAspectRatio="xMidYMid meet">
<metadata>
Created by potrace 1.10, written by Peter Selinger 2001-2011
</metadata>
<g transform="translate(0.000000,161.000000) scale(0.100000,-0.100000)"
fill="#000000" stroke="none">
<path d="M981 1441 c-26 -26 -34 -72 -30 -176 2 -47 3 -85 2 -85 -1 0 -19 11
-39 25 -55 37 -109 50 -214 50 -88 0 -101 -3 -163 -33 -162 -80 -249 -248
-219 -423 15 -89 41 -139 109 -210 72 -76 151 -112 254 -117 163 -8 297 65
374 203 49 89 55 136 55 441 0 287 -5 322 -45 338 -31 11 -65 6 -84 -13z m87
-348 l2 -321 -37 -73 c-49 -95 -115 -150 -214 -180 -308 -94 -575 206 -444
499 85 189 307 262 507 167 94 -45 98 -41 98 105 0 117 7 133 55 128 l30 -3 3
-322z"/>
<path d="M614 1124 c-146 -52 -217 -234 -149 -379 49 -103 143 -160 254 -153
77 5 125 25 176 76 141 139 101 362 -80 448 -58 28 -137 31 -201 8z m175 -29
c99 -35 161 -123 161 -229 -1 -118 -74 -211 -187 -237 -105 -25 -209 20 -263
114 -37 64 -44 106 -30 173 30 143 181 228 319 179z"/>
<path d="M2110 1241 c-37 -36 -39 -73 -5 -106 23 -24 30 -25 140 -25 l115 0 0
-300 c0 -287 1 -301 20 -320 28 -28 81 -26 108 3 22 23 22 29 22 320 l0 297
114 0 c127 0 151 10 162 66 5 24 0 37 -19 60 l-25 29 -301 3 -302 3 -29 -30z
m641 -44 c12 -45 -17 -57 -137 -57 -84 0 -104 -3 -117 -18 -14 -15 -16 -56
-17 -306 0 -195 -4 -294 -11 -303 -14 -16 -51 -17 -67 -1 -9 9 -12 89 -12 298
0 242 -2 289 -16 308 -14 20 -23 22 -112 22 -119 0 -141 6 -148 36 -14 54 -7
55 324 52 l306 -3 7 -28z"/>
<path d="M1535 1246 c-113 -37 -199 -106 -245 -196 -35 -69 -52 -170 -40 -243
22 -135 101 -240 228 -300 61 -29 75 -32 167 -32 90 0 106 3 165 31 83 39 155
110 194 194 28 59 31 74 31 165 0 91 -3 106 -31 165 -39 82 -108 151 -193 193
-56 27 -78 32 -151 34 -50 2 -102 -3 -125 -11z m265 -51 c74 -37 153 -115 181
-178 34 -74 34 -229 2 -300 -33 -70 -113 -149 -186 -183 -55 -26 -73 -29 -157
-29 -88 0 -101 3 -162 33 -81 40 -149 111 -177 188 -29 75 -29 203 -1 278 37
97 132 178 250 212 72 21 186 12 250 -21z"/>
<path d="M1535 1117 c-221 -106 -216 -417 9 -511 53 -22 150 -20 203 3 104 48
163 141 163 255 0 85 -21 135 -77 193 -56 58 -97 76 -178 80 -58 3 -78 0 -120
-20z m216 -35 c221 -115 161 -434 -86 -459 -143 -15 -264 96 -265 241 0 183
191 302 351 218z"/>
<path d="M500 300 c0 -5 7 -10 15 -10 11 0 15 -11 15 -40 0 -30 4 -40 16 -40
14 0 16 7 11 40 -4 35 -3 40 15 40 10 0 16 5 13 10 -3 6 -24 10 -46 10 -21 0
-39 -4 -39 -10z"/>
<path d="M630 260 c0 -36 4 -50 14 -50 9 0 12 7 9 20 -4 15 0 20 16 20 14 0
21 -6 21 -20 0 -11 5 -20 10 -20 6 0 10 23 10 50 0 28 -4 50 -10 50 -5 0 -10
-9 -10 -20 0 -13 -7 -20 -20 -20 -13 0 -20 7 -20 20 0 11 -4 20 -10 20 -5 0
-10 -22 -10 -50z"/>
<path d="M760 301 c0 -6 4 -12 9 -16 6 -3 6 -18 0 -38 -5 -17 -9 -33 -9 -34 0
-2 10 -3 23 -3 20 0 22 5 22 50 0 45 -2 50 -22 50 -13 0 -23 -4 -23 -9z"/>
<path d="M867 303 c-16 -15 -6 -43 18 -49 38 -9 31 -27 -7 -18 -29 6 -31 5
-19 -10 18 -22 67 -21 75 1 7 18 -17 43 -41 43 -7 0 -13 5 -13 11 0 7 11 8 32
3 29 -6 31 -5 19 10 -13 16 -52 22 -64 9z"/>
<path d="M1050 300 c0 -5 5 -10 10 -10 6 0 10 -13 10 -30 0 -16 -4 -30 -10
-30 -5 0 -10 -4 -10 -10 0 -5 14 -10 30 -10 17 0 30 5 30 10 0 6 -4 10 -10 10
-5 0 -10 14 -10 30 0 17 5 30 10 30 6 0 10 5 10 10 0 6 -13 10 -30 10 -16 0
-30 -4 -30 -10z"/>
<path d="M1154 296 c-7 -19 12 -46 32 -46 7 0 16 -5 20 -11 4 -8 -3 -9 -26 -4
-25 5 -31 4 -28 -6 3 -8 19 -14 39 -14 27 0 35 4 37 22 3 17 -3 24 -22 29 -14
3 -26 10 -26 15 0 5 12 6 26 3 20 -5 25 -3 22 7 -7 21 -67 24 -74 5z"/>
<path d="M1362 301 c-8 -5 -12 -23 -10 -47 3 -37 5 -39 38 -39 33 0 35 2 38
39 3 39 -8 56 -38 56 -8 0 -21 -4 -28 -9z m46 -44 c3 -22 -1 -27 -17 -27 -15
0 -21 6 -21 23 0 46 33 49 38 4z"/>
<path d="M1482 264 c3 -49 3 -49 38 -49 35 0 35 0 38 48 4 55 -15 65 -20 10
-4 -51 -33 -53 -34 -4 0 19 -6 37 -13 39 -9 3 -11 -9 -9 -44z"/>
<path d="M1610 261 c0 -39 4 -51 15 -51 10 0 15 8 14 23 -4 41 1 57 16 57 18
0 20 -26 3 -33 -18 -6 3 -41 28 -46 19 -3 19 -3 0 18 -12 13 -14 21 -7 21 8 0
11 11 9 28 -3 23 -8 27 -40 30 l-38 3 0 -50z"/>
<path d="M1820 260 c0 -27 5 -50 10 -50 6 0 10 7 10 15 0 8 8 15 19 15 10 0
24 6 30 14 20 24 -4 56 -39 56 -29 0 -30 -1 -30 -50z m50 15 c0 -8 -7 -15 -15
-15 -8 0 -15 7 -15 15 0 8 7 15 15 15 8 0 15 -7 15 -15z"/>
<path d="M1940 260 l0 -50 40 0 c22 0 40 5 40 10 0 6 -11 10 -25 10 -14 0 -25
5 -25 10 0 6 9 10 20 10 11 0 20 5 20 10 0 6 -9 10 -20 10 -11 0 -20 5 -20 10
0 6 11 10 25 10 14 0 25 5 25 10 0 6 -18 10 -40 10 l-40 0 0 -50z"/>
<path d="M2070 260 c0 -27 5 -50 10 -50 6 0 10 18 10 40 0 27 4 40 13 40 21 0
28 -12 16 -26 -14 -17 -2 -54 17 -54 17 0 19 16 3 26 -8 4 -8 9 0 17 28 28 6
57 -45 57 -22 0 -24 -4 -24 -50z"/>
<path d="M2205 260 c0 -43 3 -50 20 -50 17 0 20 7 20 50 0 43 -3 50 -20 50
-17 0 -20 -7 -20 -50z"/>
<path d="M2307 303 c-4 -3 -7 -24 -7 -45 0 -43 14 -54 55 -44 20 5 25 13 25
39 0 18 -5 38 -12 45 -13 13 -50 16 -61 5z m48 -43 c0 -16 -6 -26 -17 -28 -14
-3 -18 3 -18 28 0 25 4 31 18 28 11 -2 17 -12 17 -28z"/>
<path d="M2430 260 c0 -48 1 -50 28 -50 35 0 52 16 52 50 0 34 -17 50 -52 50
-27 0 -28 -2 -28 -50z m55 10 c8 -24 -1 -40 -21 -40 -9 0 -14 11 -14 30 0 35
25 42 35 10z"/>
</g>
</svg>
