<?xml version="1.0" standalone="no"?>
<!DOCTYPE svg PUBLIC "-//W3C//DTD SVG 20010904//EN"
 "http://www.w3.org/TR/2001/REC-SVG-20010904/DTD/svg10.dtd">
<svg version="1.0" xmlns="http://www.w3.org/2000/svg"
 width="300.000000pt" height="123.000000pt" viewBox="0 0 300.000000 123.000000"
 preserveAspectRatio="xMidYMid meet">
<metadata>
Created by potrace 1.10, written by Peter Selinger 2001-2011
</metadata>
<g transform="translate(0.000000,123.000000) scale(0.100000,-0.100000)"
fill="#000000" stroke="none">
<path d="M831 1199 c-31 -30 -31 -32 -31 -137 0 -59 -4 -113 -9 -120 -7 -11
-17 -10 -51 8 -49 25 -213 61 -244 53 -12 -2 -41 -9 -66 -14 -55 -11 -150 -49
-150 -59 0 -4 -14 -13 -30 -20 -53 -22 -178 -178 -186 -232 -1 -4 -2 -9 -4
-10 -2 -4 -7 -23 -18 -80 -27 -137 23 -308 121 -415 46 -50 147 -123 171 -123
8 0 17 -4 20 -9 9 -14 53 -21 159 -27 94 -6 102 -5 180 26 83 33 163 90 214
151 15 19 30 36 33 39 10 9 58 133 70 179 7 28 12 166 12 386 0 294 -2 346
-16 373 -22 43 -53 62 -102 62 -34 0 -49 -6 -73 -31z m140 -18 l29 -29 0 -349
c0 -384 -4 -416 -62 -525 -38 -72 -134 -163 -210 -200 -81 -40 -179 -55 -267
-41 -235 36 -401 228 -402 462 -2 294 256 519 538 471 70 -11 184 -57 197 -79
20 -31 26 0 26 129 0 140 0 141 26 165 38 35 87 34 125 -4z"/>
<path d="M479 789 c-88 -13 -171 -76 -215 -161 -25 -49 -30 -155 -10 -216 33
-97 128 -177 237 -197 50 -9 150 18 205 56 51 35 98 111 115 184 19 88 -21
201 -96 268 -29 26 -114 64 -155 69 -19 3 -56 1 -81 -3z m145 -35 c26 -9 50
-23 53 -30 3 -8 9 -14 15 -14 14 0 33 -21 67 -76 28 -43 31 -56 31 -124 0 -62
-5 -84 -26 -125 -50 -94 -114 -136 -219 -143 -129 -8 -224 56 -265 177 -36
109 -15 197 68 283 19 21 54 44 76 52 55 20 142 19 200 0z"/>
<path d="M2536 1000 l-348 -5 -32 -37 c-47 -54 -42 -113 14 -163 19 -17 41
-21 149 -25 l126 -5 1 -315 c0 -173 4 -332 8 -352 13 -68 93 -107 159 -77 14
6 34 28 46 49 21 37 22 50 21 327 0 158 0 307 0 331 l0 42 115 0 c82 0 124 4
144 14 88 46 79 173 -15 212 -19 8 -35 13 -36 12 -2 -1 -160 -5 -352 -8z m415
-49 c48 -48 35 -118 -29 -150 -14 -8 -68 -11 -143 -10 l-120 1 1 -336 c0 -287
-2 -342 -15 -370 -29 -61 -99 -74 -146 -27 l-29 29 0 354 0 353 -135 0 c-131
0 -135 1 -160 26 -43 42 -32 123 19 147 13 7 153 11 374 11 l354 1 29 -29z"/>
<path d="M1545 994 c-57 -15 -145 -46 -145 -52 0 -4 -14 -13 -31 -21 -40 -18
-138 -118 -164 -168 -11 -21 -24 -41 -30 -45 -5 -4 -6 -8 -1 -8 5 0 4 -6 -2
-12 -24 -31 -41 -188 -29 -273 10 -68 60 -173 111 -232 48 -55 149 -126 211
-148 64 -23 275 -34 275 -14 0 7 3 10 6 6 10 -10 99 28 158 67 88 59 154 147
192 260 72 210 -14 447 -206 568 -85 53 -136 69 -235 73 -49 2 -99 2 -110 -1z
m242 -45 c78 -30 109 -49 171 -111 67 -66 100 -121 124 -207 60 -217 -43 -450
-243 -548 -143 -71 -271 -71 -416 -2 -200 95 -305 325 -248 544 43 165 179
296 351 340 76 19 184 12 261 -16z"/>
<path d="M1527 776 c-182 -66 -245 -314 -115 -461 136 -155 380 -125 476 59
22 42 27 64 27 126 0 123 -58 214 -169 266 -59 27 -157 32 -219 10z m171 -18
c88 -21 148 -77 183 -169 20 -56 21 -66 10 -128 -22 -123 -107 -203 -235 -220
-117 -16 -245 65 -277 176 -32 110 -7 205 73 282 67 65 147 84 246 59z"/>
</g>
</svg>
