<?xml version="1.0" standalone="no"?>
<!DOCTYPE svg PUBLIC "-//W3C//DTD SVG 20010904//EN"
 "http://www.w3.org/TR/2001/REC-SVG-20010904/DTD/svg10.dtd">
<svg version="1.0" xmlns="http://www.w3.org/2000/svg"
 width="900.000000pt" height="909.000000pt" viewBox="0 0 900.000000 909.000000"
 preserveAspectRatio="xMidYMid meet">
<metadata>
Created by potrace 1.10, written by Peter Selinger 2001-2011
</metadata>
<g transform="translate(0.000000,909.000000) scale(0.100000,-0.100000)"
fill="#4e6fdd" stroke="none">
<path d="M3316 8583 c-93 -28 -166 -94 -232 -209 -15 -26 -44 -30 -51 -7 -10
35 -131 127 -211 160 -66 28 -89 33 -161 33 -77 0 -91 -3 -167 -39 -106 -51
-197 -139 -243 -237 -29 -61 -31 -75 -31 -171 0 -86 4 -112 19 -137 10 -17 24
-47 30 -68 12 -37 124 -168 144 -168 6 0 28 -12 50 -27 26 -18 67 -32 125 -43
l87 -16 8 -75 c6 -53 16 -87 36 -118 29 -47 106 -108 150 -117 14 -3 36 -7 49
-10 12 -2 22 -8 22 -12 0 -4 -19 -27 -41 -52 -23 -25 -50 -56 -60 -69 -27 -34
-66 -35 -111 -5 -21 13 -38 28 -38 33 0 16 -86 40 -145 40 -87 0 -106 -3 -143
-23 -19 -9 -37 -15 -40 -11 -3 3 0 29 8 58 20 77 18 231 -4 292 -23 64 -91
156 -150 201 -61 46 -149 82 -223 90 -92 11 -94 13 -87 93 18 188 -130 351
-318 351 -122 0 -288 -135 -288 -234 0 -14 -8 -41 -17 -61 -14 -29 -14 -39 -4
-58 7 -13 11 -37 9 -53 -2 -25 -9 -31 -43 -39 -125 -32 -227 -115 -269 -219
-31 -80 -33 -122 -5 -212 18 -61 29 -77 90 -136 38 -37 82 -74 98 -82 16 -9
31 -23 35 -32 6 -15 1 -16 -43 -11 -64 8 -213 -16 -273 -42 -53 -24 -150 -109
-171 -149 -7 -15 -18 -36 -24 -47 -53 -99 -56 -306 -5 -357 7 -7 12 -20 12
-29 0 -26 138 -160 195 -190 28 -14 51 -33 53 -42 2 -10 -10 -33 -27 -53 -17
-19 -31 -41 -31 -49 0 -8 -9 -19 -19 -25 -19 -10 -54 -97 -71 -175 -23 -111
22 -285 99 -381 25 -31 50 -62 55 -69 14 -18 -1 -45 -24 -45 -38 0 -137 -60
-187 -113 -55 -57 -93 -143 -93 -205 0 -41 20 -114 44 -160 19 -37 92 -107
137 -131 18 -10 35 -23 37 -29 2 -7 -25 -43 -60 -80 -161 -170 -192 -298 -117
-496 32 -86 148 -208 211 -221 15 -4 39 -16 54 -27 42 -33 161 -37 250 -8 76
25 173 85 219 138 l31 35 32 -17 c18 -9 32 -23 32 -30 0 -8 -32 -47 -70 -87
-38 -39 -70 -78 -70 -85 0 -7 -7 -20 -16 -29 -9 -9 -29 -53 -45 -97 -16 -45
-32 -84 -35 -87 -2 -3 -29 7 -58 22 -103 50 -207 79 -256 72 -69 -9 -71 -10
-130 -32 -142 -54 -218 -125 -279 -263 -20 -44 -25 -71 -24 -132 1 -116 2
-128 25 -188 24 -62 51 -100 120 -171 27 -27 48 -53 48 -57 0 -4 -15 -23 -33
-42 -86 -90 -112 -143 -123 -245 -6 -56 -3 -65 32 -135 34 -65 47 -80 102
-116 72 -48 145 -66 240 -60 34 2 62 0 62 -5 0 -5 -10 -26 -23 -47 -35 -55
-48 -115 -50 -228 -3 -120 -10 -134 -72 -134 -24 0 -48 -6 -54 -14 -6 -7 -25
-16 -41 -20 -39 -7 -99 -70 -135 -142 -27 -53 -28 -59 -17 -114 6 -33 18 -74
26 -92 24 -50 83 -106 138 -133 61 -29 134 -28 197 4 22 12 45 21 51 21 16 0
12 -48 -7 -76 -13 -20 -16 -49 -15 -140 1 -106 3 -119 32 -181 39 -82 127
-176 195 -208 55 -27 123 -43 200 -47 59 -4 58 0 33 -143 -31 -177 15 -325
141 -458 48 -51 85 -73 189 -113 50 -19 81 -24 156 -24 148 0 260 47 351 148
70 77 85 104 120 206 30 90 49 114 62 79 14 -38 85 -123 139 -168 62 -50 99
-68 184 -91 74 -20 211 -2 253 33 16 13 36 23 44 23 9 0 40 20 69 45 68 59 93
50 145 -48 52 -99 186 -194 293 -207 72 -9 205 9 253 33 88 46 205 171 234
250 8 23 19 37 30 37 19 0 59 -45 59 -66 0 -17 78 -107 101 -116 10 -4 28 -17
39 -28 12 -12 49 -35 83 -51 53 -25 74 -29 142 -29 103 0 185 21 255 67 57 37
159 139 160 160 0 17 40 92 52 99 11 7 29 -16 22 -28 -18 -29 50 -155 105
-196 56 -41 109 -54 165 -41 54 13 124 56 143 88 7 11 24 28 38 37 23 15 26
15 52 -3 75 -52 183 -92 253 -94 25 -1 81 7 125 16 69 15 90 26 155 75 89 68
98 78 137 150 57 106 64 279 16 378 -30 64 -63 115 -77 121 -5 2 -29 22 -52
45 -24 23 -52 49 -64 59 -30 26 -25 39 27 67 71 37 137 110 180 196 34 70 38
86 41 174 3 65 0 111 -9 136 -7 22 -12 43 -11 48 2 4 -9 28 -24 53 -22 38 -24
49 -15 69 7 16 19 24 34 24 19 0 28 -9 41 -44 23 -60 100 -174 144 -214 52
-47 139 -102 160 -102 10 0 26 -6 37 -13 17 -13 17 -15 -9 -33 -15 -10 -72
-56 -126 -101 -113 -95 -148 -152 -177 -290 -15 -73 -15 -92 -4 -175 9 -65 20
-103 37 -128 13 -19 24 -40 24 -46 0 -16 108 -133 149 -160 20 -13 45 -31 57
-39 12 -9 61 -27 110 -40 87 -24 91 -24 185 -10 111 16 182 46 255 108 135
113 193 232 194 402 0 39 -2 91 -6 116 -6 42 -4 48 15 54 13 4 28 1 36 -5 11
-9 39 -10 101 -5 189 16 339 133 397 312 20 62 23 156 7 213 -7 25 -14 63 -17
85 l-5 40 47 14 c26 8 63 15 83 16 37 2 129 46 189 89 49 36 138 145 162 200
26 60 39 142 36 223 -5 101 -34 173 -117 283 -26 35 -48 70 -48 77 0 18 47 39
105 48 163 23 318 184 346 357 14 87 -5 226 -37 270 -13 18 -24 38 -24 44 0 7
-11 25 -25 40 -14 15 -25 33 -25 39 0 14 65 75 80 75 13 0 120 81 120 90 0 5
16 27 35 50 19 23 38 54 41 69 4 14 10 31 13 36 49 75 25 258 -47 366 -39 57
-123 128 -190 162 -79 40 -224 48 -304 17 -77 -29 -152 -86 -215 -165 -64 -80
-76 -120 -77 -255 -1 -101 0 -108 34 -175 20 -38 44 -82 54 -97 24 -36 17 -50
-30 -67 -22 -8 -51 -23 -66 -35 -15 -12 -42 -32 -61 -46 -45 -32 -102 -109
-139 -187 -28 -60 -29 -67 -25 -170 l4 -108 54 -95 c29 -52 64 -106 77 -119
13 -13 21 -25 19 -27 -2 -2 -37 -8 -78 -13 -41 -6 -111 -22 -156 -38 -45 -15
-85 -25 -88 -21 -4 3 -2 23 4 44 19 70 8 162 -28 253 -28 67 -46 95 -95 145
-87 87 -108 100 -206 127 -127 36 -263 4 -396 -93 -93 -67 -154 -197 -154
-328 0 -46 -15 -60 -61 -60 -47 0 -113 -24 -162 -57 -35 -24 -39 -25 -54 -10
-15 15 -53 117 -53 143 0 11 141 64 169 64 15 0 151 108 151 119 0 4 9 19 21
32 12 13 35 51 51 84 28 55 31 68 31 157 -1 80 -5 105 -23 144 -26 53 -19 79
21 79 35 1 140 37 170 58 33 23 67 15 75 -18 10 -39 193 -193 214 -180 5 3 31
-3 56 -14 104 -46 271 -9 398 89 49 38 64 58 101 135 45 95 57 138 60 220 2
50 -27 157 -51 185 -6 8 -19 31 -27 51 -8 20 -27 45 -41 55 -14 11 -47 38 -73
61 -27 24 -61 44 -82 48 -19 4 -49 14 -66 23 -41 21 -136 25 -188 7 -23 -8
-50 -15 -59 -15 -10 0 -32 -9 -50 -20 -18 -11 -41 -20 -52 -20 -15 0 -17 5
-12 38 17 105 18 228 1 292 -9 36 -19 75 -22 87 -4 19 0 23 33 28 82 13 155
34 192 55 58 33 75 25 88 -40 22 -114 117 -243 225 -308 78 -47 233 -66 323
-40 80 24 199 119 249 200 10 15 31 35 47 43 28 14 32 14 58 -5 44 -32 131
-47 184 -30 51 17 132 89 159 142 23 44 25 134 5 181 -14 35 -81 108 -134 148
l-33 26 68 79 c97 112 116 161 117 299 1 109 0 111 -37 185 -91 178 -231 258
-430 247 -66 -4 -90 -11 -160 -46 -91 -46 -116 -74 -202 -223 -33 -58 -37
-238 -6 -296 6 -11 11 -37 11 -56 0 -34 -2 -36 -32 -36 -63 -1 -193 -47 -233
-83 -45 -40 -84 -67 -96 -67 -13 1 -69 78 -69 94 0 4 -15 27 -34 52 -19 25
-33 51 -30 57 3 7 31 32 63 57 54 43 103 98 145 164 34 55 47 123 48 244 0 77
4 120 11 124 7 4 51 8 99 8 98 0 157 18 236 73 109 74 199 218 209 334 6 71
-16 170 -51 233 -14 25 -30 54 -35 66 -16 35 -116 114 -191 150 -65 31 -80 34
-160 34 -129 0 -143 11 -95 74 35 46 64 140 65 207 0 101 -87 228 -200 290
-45 25 -70 32 -140 36 -93 6 -114 17 -124 64 -16 80 -150 179 -244 179 l-49 0
-7 103 c-13 193 -66 322 -183 443 -103 107 -299 197 -420 193 -166 -6 -287
-47 -394 -132 -71 -57 -139 -137 -174 -207 -15 -30 -31 -63 -36 -73 -5 -10
-16 -55 -25 -100 -9 -45 -19 -86 -24 -91 -4 -4 -16 5 -27 20 -64 100 -142 177
-221 218 -77 40 -124 49 -224 42 -53 -4 -99 -3 -102 2 -3 5 6 25 19 44 13 20
29 57 36 83 32 127 -92 285 -224 285 -94 0 -216 -97 -233 -186 -5 -26 -11 -33
-23 -30 -223 61 -345 38 -492 -94 -53 -47 -76 -77 -103 -134 -20 -41 -36 -83
-36 -93 0 -11 -5 -24 -11 -30 -13 -13 -41 2 -89 46 -37 35 -114 81 -134 81 -9
0 -31 8 -49 17 -18 9 -45 18 -62 19 -47 3 -125 16 -125 21 0 2 11 25 25 51 38
71 36 170 -5 248 -34 63 -91 132 -127 152 -33 18 -144 52 -168 51 -11 -1 -42
-8 -69 -16z m179 -82 c51 -23 118 -98 133 -149 50 -166 -68 -321 -244 -322
-72 0 -100 12 -163 73 -46 44 -81 120 -81 176 0 82 89 209 161 229 57 17 150
13 194 -7z m-650 -66 c112 -66 161 -135 184 -262 14 -72 2 -167 -27 -224 -40
-78 -89 -125 -180 -170 -143 -71 -225 -66 -369 24 -35 21 -63 42 -63 46 0 4
-11 21 -25 37 -14 16 -37 53 -50 83 -21 45 -25 69 -25 146 0 82 3 98 30 151
40 80 102 142 180 181 90 44 85 43 180 39 81 -3 89 -6 165 -51z m2216 -30 c75
-27 124 -93 123 -165 -1 -36 -46 -120 -63 -120 -5 0 -17 -8 -27 -17 -12 -13
-33 -18 -73 -18 -46 0 -63 5 -93 28 -78 60 -99 144 -54 215 29 47 43 58 92 76
50 19 44 19 95 1z m1476 -114 c132 -34 286 -161 341 -280 38 -84 40 -90 52
-178 22 -147 -14 -272 -115 -403 -47 -61 -133 -132 -195 -162 -96 -45 -264
-61 -359 -33 -63 18 -150 59 -180 84 -10 9 -29 23 -41 31 -32 22 -115 130
-143 186 -14 28 -31 93 -41 150 -15 94 -15 107 0 180 33 157 121 282 262 367
123 75 275 96 419 58z m-4895 -42 c93 -19 162 -87 195 -191 15 -44 14 -52 -2
-105 -36 -117 -204 -226 -283 -184 -9 6 -39 20 -66 33 -99 47 -155 162 -128
264 7 25 17 50 22 57 6 7 20 25 31 40 27 36 89 75 137 86 20 5 38 9 39 10 1 1
26 -4 55 -10z m3077 -60 c47 -24 161 -124 161 -142 0 -6 6 -18 14 -26 19 -21
46 -116 46 -160 0 -42 -30 -151 -56 -201 -31 -60 -115 -134 -175 -152 -244
-75 -425 18 -503 256 -26 81 -17 155 33 262 21 44 119 139 160 156 90 37 98
38 186 34 67 -3 101 -10 134 -27z m-1534 -149 c15 -16 44 -35 64 -41 44 -15
101 -57 101 -74 0 -8 -11 -27 -25 -43 -14 -17 -25 -34 -25 -40 0 -5 -11 -26
-25 -46 -40 -59 -56 -139 -49 -251 3 -54 10 -107 16 -118 16 -31 -9 -44 -99
-52 -71 -6 -83 -5 -83 8 0 8 13 26 28 39 33 27 62 94 62 141 0 64 -24 113 -82
173 -54 55 -76 104 -47 104 5 0 17 17 25 38 14 35 53 121 77 170 14 29 28 28
62 -8z m698 -74 c154 -72 246 -219 247 -393 0 -45 -4 -84 -9 -88 -5 -3 -13
-20 -17 -37 -22 -101 -154 -227 -279 -265 -51 -16 -165 -17 -219 -1 -91 26
-226 139 -265 222 -43 90 -51 121 -51 186 0 151 103 303 255 375 64 31 78 34
168 34 91 1 103 -1 170 -33z m1539 15 c80 -28 109 -45 156 -91 76 -76 112
-158 112 -253 0 -117 -49 -214 -145 -286 -93 -70 -185 -93 -288 -71 -106 22
-246 144 -263 228 -4 18 -11 35 -15 38 -17 10 -9 129 12 189 29 84 42 106 90
154 47 46 76 64 153 92 67 23 120 23 188 0z m-3387 -185 c85 -23 118 -41 172
-96 60 -60 99 -134 114 -217 9 -48 8 -68 -7 -118 -50 -170 -192 -284 -354
-284 -133 -1 -261 79 -325 202 -24 46 -27 63 -27 153 0 89 4 109 26 157 48
101 146 178 256 203 72 16 86 16 145 0z m-626 -30 c52 -33 105 -98 119 -145
34 -113 -9 -236 -103 -299 -98 -65 -183 -66 -275 -4 -63 43 -103 96 -127 170
-16 49 -16 55 1 110 29 90 114 180 187 195 54 12 159 -3 198 -27z m1598 -62
c75 -56 99 -144 58 -209 -49 -76 -149 -115 -208 -82 -72 40 -107 94 -107 165
0 42 5 54 33 84 75 79 154 94 224 42z m2781 -126 c7 -7 12 -18 12 -25 0 -7 32
-60 71 -118 76 -113 84 -147 31 -144 -45 3 -153 -21 -201 -45 -77 -37 -122
-73 -202 -159 l-76 -81 -39 34 c-22 18 -45 42 -52 52 -36 50 -213 101 -272 79
-14 -6 -36 -11 -49 -13 -28 -3 -31 2 -78 114 -18 45 -45 86 -80 123 l-53 56
22 30 c12 16 33 32 47 36 27 7 41 -8 81 -84 13 -27 34 -61 47 -76 25 -31 102
-90 143 -109 14 -7 33 -19 43 -27 47 -39 254 -25 327 23 19 13 51 33 70 44 63
37 140 133 140 175 0 7 11 19 24 26 20 11 23 18 18 57 -5 44 4 54 26 32z
m1377 -21 c99 -56 116 -176 35 -257 -83 -83 -212 -60 -259 46 -27 60 -26 79 7
139 48 88 137 118 217 72z m-2855 -67 c34 -27 66 -50 71 -50 4 0 11 -9 14 -21
5 -15 0 -29 -18 -47 -47 -52 -86 -162 -87 -244 0 -43 -3 -44 -56 -21 -30 12
-71 16 -181 16 -79 0 -143 2 -143 6 0 3 25 21 55 39 69 42 156 141 194 223 17
35 31 70 31 77 0 21 33 72 46 72 6 0 40 -22 74 -50z m408 -86 c38 -8 114 -79
142 -133 30 -60 30 -163 -1 -217 -48 -85 -105 -130 -181 -144 -60 -12 -145 1
-188 29 -65 42 -114 117 -125 192 -16 106 59 228 163 265 39 14 139 18 190 8z
m2826 -94 c67 -31 121 -83 132 -124 3 -15 10 -29 15 -32 5 -3 9 -40 9 -83 0
-56 -5 -88 -20 -118 -25 -53 -94 -120 -131 -128 -16 -4 -31 -11 -34 -16 -4 -5
-37 -9 -75 -9 -132 0 -235 83 -262 213 -27 126 28 231 153 294 83 42 130 43
213 3z m-640 -33 c29 -31 76 -66 109 -82 62 -31 80 -52 75 -88 -4 -26 -37 -35
-52 -15 -34 46 -182 98 -278 98 -20 0 -40 5 -44 11 -7 11 112 129 130 129 6 0
33 -24 60 -53z m-3593 -5 c80 -36 159 -115 201 -200 29 -59 30 -67 26 -150 -6
-93 -17 -125 -72 -198 -31 -41 -102 -96 -161 -123 -48 -22 -201 -20 -250 3
-126 60 -210 162 -224 271 -20 168 36 294 167 373 112 68 202 75 313 24z
m-1769 16 c8 -7 30 -35 49 -63 60 -90 154 -169 225 -189 68 -19 170 -27 224
-16 90 18 106 24 140 52 40 32 88 39 74 11 -14 -29 -5 -174 13 -212 20 -44 8
-65 -38 -69 -96 -7 -122 -15 -186 -58 -36 -25 -72 -48 -79 -51 -8 -3 -34 16
-62 44 -62 65 -84 77 -167 92 -65 12 -74 11 -123 -8 -61 -24 -102 -27 -102 -8
0 8 -9 24 -20 37 -11 13 -20 29 -20 35 0 7 -17 46 -38 86 -33 64 -50 82 -119
135 -44 34 -87 64 -94 67 -26 10 13 27 62 27 27 0 65 10 95 24 27 13 59 26 70
30 12 4 29 15 39 26 21 23 35 25 57 8z m4450 -82 c32 -8 79 -24 105 -37 65
-31 165 -134 197 -202 55 -116 51 -286 -10 -395 -83 -148 -218 -226 -389 -226
-127 0 -211 34 -300 121 -180 175 -175 462 9 631 113 103 250 141 388 108z
m-3354 -20 c78 -40 115 -106 115 -202 0 -65 -3 -75 -37 -126 -29 -44 -47 -60
-88 -78 -94 -40 -211 -11 -266 67 -74 104 -67 204 22 294 25 25 60 51 78 57
43 15 137 8 176 -12z m3820 -47 c28 1 52 -2 52 -7 0 -13 -102 -118 -122 -125
-13 -4 -23 2 -35 21 -9 15 -25 36 -34 47 -10 11 -21 33 -25 49 l-7 29 59 -9
c32 -4 83 -7 112 -5z m-5317 -29 c99 -19 164 -64 230 -160 54 -78 77 -223 44
-280 -8 -14 -15 -34 -15 -45 -1 -28 -78 -124 -125 -156 -88 -60 -268 -83 -345
-44 -60 30 -136 94 -156 130 -10 19 -22 35 -26 35 -4 0 -10 16 -14 35 -3 19
-10 38 -15 41 -5 3 -9 45 -9 94 0 81 3 94 33 150 84 160 227 232 398 200z
m2747 -2 c-3 -7 -20 -20 -39 -29 -28 -14 -106 -90 -163 -159 -7 -8 -28 -49
-48 -90 -34 -70 -36 -80 -34 -160 3 -91 24 -163 76 -266 17 -31 28 -59 26 -61
-2 -2 -36 4 -76 13 -82 18 -147 14 -240 -17 -83 -27 -125 -54 -205 -134 -94
-94 -132 -172 -144 -300 -8 -89 -1 -129 42 -233 24 -58 45 -88 102 -145 39
-40 87 -85 106 -100 l34 -28 -28 -22 c-16 -12 -52 -46 -81 -76 -55 -57 -76
-60 -76 -13 -1 15 -9 43 -20 62 -10 19 -28 54 -40 77 -12 24 -36 51 -54 62
-17 11 -42 31 -55 45 -13 14 -40 29 -60 32 -20 4 -43 12 -51 19 -8 7 -26 15
-39 17 -38 5 -47 29 -26 69 19 37 29 210 14 239 -4 8 -14 34 -23 57 -14 38
-14 44 0 58 8 8 23 15 32 15 9 0 43 10 75 23 72 27 145 94 184 169 26 48 28
62 27 155 0 97 1 102 23 112 13 6 44 11 69 11 24 0 70 9 102 21 31 11 66 23
77 26 32 10 104 70 140 118 11 15 31 41 45 59 14 17 31 42 38 56 12 26 17 139
11 245 l-4 60 117 5 c64 3 120 9 124 13 12 12 46 8 42 -5z m2947 1 c122 -22
243 -137 273 -261 36 -142 -11 -274 -130 -371 -80 -65 -102 -72 -218 -71 -83
0 -112 4 -140 18 -93 50 -168 130 -196 208 -8 24 -14 77 -14 132 0 80 4 98 29
148 65 128 173 199 317 207 11 0 47 -4 79 -10z m-1595 -41 c58 -32 110 -90
129 -147 14 -44 14 -133 -1 -184 -14 -47 -106 -147 -135 -147 -11 0 -28 -7
-39 -15 -21 -16 -139 -21 -148 -6 -3 5 -18 12 -33 16 -42 10 -101 63 -133 119
-25 43 -30 62 -30 123 0 64 4 78 35 131 83 142 218 184 355 110z m-1078 -23
c95 -15 214 -114 269 -224 30 -60 33 -75 34 -156 0 -86 -11 -130 -45 -185 -6
-8 -14 -25 -19 -37 -15 -33 -101 -111 -146 -132 -117 -55 -192 -62 -287 -30
-82 27 -105 40 -154 86 -97 90 -134 172 -134 295 0 144 82 276 216 349 79 42
153 52 266 34z m607 -219 c6 -4 11 -19 11 -33 0 -14 12 -57 27 -95 30 -75 72
-121 156 -170 26 -15 47 -32 47 -38 0 -5 -15 -17 -32 -25 -18 -9 -46 -23 -61
-31 -22 -12 -31 -13 -43 -4 -7 7 -14 17 -14 22 0 5 -18 33 -41 63 -50 66 -132
115 -193 115 -59 1 -76 18 -86 87 -4 32 -11 66 -15 76 -15 37 -2 42 118 41 63
-1 120 -5 126 -8z m2517 -64 c40 -23 117 -42 169 -42 67 0 69 -10 14 -68 -43
-47 -91 -141 -103 -207 -5 -22 -9 -80 -10 -129 -1 -84 -2 -89 -25 -98 -16 -6
-35 -5 -53 3 -20 8 -36 8 -55 1 -16 -6 -54 -13 -86 -16 -126 -13 -253 -109
-329 -248 -40 -73 -62 -202 -49 -278 17 -94 116 -258 180 -299 54 -33 91 -65
91 -78 0 -7 -13 -26 -29 -42 -48 -49 -71 -115 -79 -221 l-7 -95 -85 2 c-99 2
-136 6 -144 14 -3 3 -2 51 4 107 8 83 7 106 -5 129 -8 15 -15 37 -15 48 0 50
-107 186 -194 245 -45 31 -57 66 -28 86 30 21 102 130 109 167 3 18 12 41 19
52 8 13 12 52 10 110 -3 110 -36 201 -103 285 -53 66 -98 101 -180 139 -67 32
-81 57 -45 83 11 7 24 22 29 33 6 11 27 38 47 59 l37 38 62 -60 c79 -77 116
-102 198 -130 120 -42 242 -29 339 35 19 13 39 23 44 23 15 0 86 72 86 86 0 7
11 26 24 42 33 39 67 126 71 185 2 26 6 51 10 56 6 10 48 1 81 -17z m-5508
-11 c112 -57 157 -167 117 -282 -29 -81 -120 -149 -200 -149 -88 0 -198 92
-211 177 -11 71 2 131 39 179 65 86 172 117 255 75z m997 -1 c26 -29 13 -50
-32 -50 -58 0 -101 -16 -148 -55 -51 -42 -79 -44 -101 -9 -21 31 -12 41 46 47
85 9 137 27 165 58 34 34 46 36 70 9z m-502 -27 c69 -22 101 -47 143 -109 30
-46 34 -60 34 -116 -1 -98 -35 -159 -123 -215 -36 -23 -53 -27 -117 -27 -84 0
-118 13 -170 66 -72 71 -89 172 -46 263 35 75 74 110 154 139 51 19 65 19 125
-1z m5586 6 c112 -26 221 -105 268 -196 25 -47 53 -147 53 -187 0 -29 -23
-103 -51 -161 -32 -69 -114 -144 -198 -180 -34 -15 -66 -19 -137 -19 -84 1
-98 4 -148 33 -77 43 -186 156 -186 193 0 8 -7 23 -15 34 -16 21 -22 209 -6
218 5 3 12 18 15 32 9 34 79 127 119 156 38 28 75 46 142 69 60 20 86 22 144
8z m-4970 -123 c10 -9 21 -16 25 -16 5 0 30 -23 56 -50 36 -38 50 -61 55 -93
4 -23 11 -50 16 -59 11 -21 -13 -113 -43 -163 -61 -104 -216 -147 -327 -90
-27 13 -67 46 -90 72 -60 70 -73 128 -50 235 10 45 21 62 75 115 34 34 73 64
86 66 48 11 179 -1 197 -17z m2520 -12 c13 -9 29 -31 36 -48 15 -35 95 -131
140 -168 33 -27 150 -91 172 -94 18 -3 53 -34 53 -47 0 -5 -15 -28 -33 -51
-43 -53 -89 -158 -98 -221 -10 -72 23 -222 63 -290 10 -16 18 -36 18 -44 0
-21 30 -51 52 -51 10 0 18 -4 18 -10 0 -5 21 -22 48 -37 26 -15 49 -31 51 -36
2 -4 14 -12 27 -17 13 -5 24 -13 24 -17 0 -5 -18 -28 -39 -52 -38 -45 -61 -48
-61 -9 0 11 -11 33 -25 50 -14 16 -25 35 -25 43 0 18 -109 128 -157 158 -21
14 -64 35 -93 48 -68 28 -101 55 -92 78 3 9 16 32 28 51 13 19 26 49 30 65 4
17 12 36 18 44 7 9 11 56 10 120 -1 105 -1 107 -43 189 -51 96 -111 156 -213
208 -38 19 -68 38 -68 42 0 14 43 49 68 57 13 4 27 18 32 31 11 28 27 30 59 8z
m-711 -48 c49 -25 92 -82 98 -130 5 -35 1 -54 -17 -91 -61 -122 -210 -134
-283 -21 -30 46 -33 90 -11 143 40 95 136 139 213 99z m611 -167 c81 -44 146
-118 177 -205 86 -235 -86 -469 -349 -473 -129 -3 -250 79 -317 212 -26 53
-30 71 -30 147 0 76 4 94 30 146 48 97 133 169 240 205 14 5 61 7 105 5 68 -3
89 -8 144 -37z m-3880 -43 c258 -111 354 -412 199 -623 -56 -77 -95 -110 -173
-147 -121 -58 -246 -57 -371 5 -78 39 -166 131 -190 199 -9 25 -20 53 -25 62
-12 24 -12 215 1 223 6 3 10 17 10 29 0 37 77 143 135 187 115 87 297 115 414
65z m536 -33 c27 -27 70 -61 94 -78 71 -48 71 -53 13 -126 -29 -35 -66 -93
-83 -129 -28 -59 -32 -75 -33 -168 -1 -69 2 -106 9 -110 7 -4 23 -32 37 -63
58 -127 211 -232 362 -246 l80 -8 1 -121 c1 -94 5 -125 17 -137 8 -8 21 -30
28 -47 8 -18 24 -43 37 -56 20 -20 31 -44 19 -44 -2 0 -27 11 -55 25 -28 14
-72 32 -98 41 -55 16 -213 20 -241 5 -11 -6 -31 -7 -48 -2 -27 7 -29 11 -31
57 -4 137 -50 232 -160 332 -43 40 -85 72 -93 72 -8 0 -27 6 -42 14 -21 11
-141 36 -172 36 -17 0 0 30 39 69 25 25 45 50 45 57 0 6 9 23 20 37 11 14 20
31 20 39 0 7 7 26 15 42 9 17 18 70 22 120 5 76 2 103 -16 164 -12 40 -31 87
-41 105 -11 18 -16 37 -12 43 4 5 43 27 87 48 44 21 88 47 98 57 10 11 21 19
26 19 4 0 29 -21 56 -47z m2577 -112 c21 -7 40 -17 44 -22 3 -5 23 -9 44 -7
54 3 111 -38 80 -57 -6 -4 -7 -23 -4 -44 3 -21 2 -41 -3 -44 -6 -4 -37 -2 -69
4 -101 19 -264 3 -306 -30 -13 -10 -33 -21 -44 -25 -31 -10 -142 -122 -165
-168 -51 -100 -57 -259 -14 -355 29 -63 27 -61 68 -122 31 -47 30 -66 -5 -82
-32 -14 -99 -122 -105 -168 -14 -105 123 -251 236 -251 40 0 116 34 154 68 45
41 71 104 77 186 l5 80 45 12 c72 18 158 61 212 104 28 22 56 40 63 40 8 0 14
-26 19 -77 11 -140 14 -151 52 -224 44 -83 136 -182 209 -223 116 -65 261 -83
384 -46 102 30 152 61 231 138 40 40 78 72 85 72 23 0 145 -173 132 -186 -2
-3 -37 -10 -78 -18 -93 -16 -130 -35 -194 -101 -65 -66 -95 -141 -95 -234 0
-37 5 -72 12 -79 17 -17 -9 -42 -46 -42 -63 -1 -150 -30 -216 -75 -43 -29
-140 -125 -140 -138 0 -4 -13 -28 -29 -54 -24 -39 -30 -64 -36 -133 -7 -90 10
-186 39 -219 7 -9 17 -25 20 -37 4 -12 42 -59 85 -105 82 -86 86 -96 46 -129
-20 -17 -50 -80 -65 -138 -28 -110 56 -259 170 -301 19 -7 62 -16 95 -20 65
-7 82 -26 52 -59 -14 -15 -36 -175 -30 -207 20 -95 33 -130 68 -185 40 -62
130 -150 153 -150 6 0 23 -11 37 -24 15 -14 41 -28 58 -32 50 -10 58 -21 51
-68 -4 -22 -11 -46 -15 -52 -5 -6 -8 -30 -7 -53 1 -22 -1 -44 -5 -47 -3 -3
-36 -10 -74 -14 -37 -4 -90 -17 -116 -29 -27 -12 -57 -21 -66 -21 -10 0 -52
-33 -94 -74 -54 -52 -86 -94 -111 -145 -20 -39 -40 -71 -45 -71 -5 0 -11 17
-14 38 -9 71 -40 167 -71 220 -17 29 -38 66 -47 82 -9 16 -26 38 -39 48 -31
25 -21 50 38 90 94 63 128 99 167 179 39 77 40 79 40 194 0 123 -2 129 -61
224 -51 82 -157 165 -232 185 -21 5 -54 13 -76 19 -58 15 -61 21 -31 95 62
154 25 328 -95 453 -91 94 -164 129 -291 140 -80 7 -197 -24 -240 -63 -14 -13
-30 -24 -37 -24 -15 0 -107 -111 -126 -152 -32 -70 -47 -126 -51 -190 -2 -37
1 -70 6 -73 5 -4 9 -24 9 -45 0 -46 0 -45 -125 -55 -44 -3 -95 -12 -112 -20
-92 -42 -111 -54 -161 -104 -29 -30 -60 -70 -68 -90 -8 -20 -25 -46 -36 -59
-20 -20 -22 -33 -22 -140 0 -141 30 -247 74 -268 10 -5 37 -33 60 -62 l42 -54
-44 -39 c-56 -51 -100 -90 -113 -98 -46 -29 -125 -215 -125 -294 0 -59 -22
-58 -88 6 -32 30 -78 65 -102 77 -25 12 -53 29 -63 38 -53 47 -310 44 -352 -3
-5 -7 -26 -18 -45 -25 -61 -23 -155 -114 -202 -195 -45 -79 -68 -92 -89 -53
-20 37 -110 142 -135 158 -41 25 -38 41 18 89 89 77 109 103 154 199 48 102
61 110 112 67 55 -46 161 -84 253 -90 84 -5 84 -5 169 38 166 84 221 134 268
244 48 110 36 359 -18 408 -11 10 -20 26 -20 35 0 9 -13 29 -30 43 -38 34 -39
64 -2 79 15 6 46 19 69 29 24 11 45 19 47 19 3 0 25 14 50 30 58 39 121 118
160 200 28 59 31 73 29 157 -1 81 -5 101 -32 160 -41 87 -135 185 -211 220
-128 58 -137 67 -106 102 23 25 76 197 76 244 -1 54 -21 138 -50 205 -31 73
-132 165 -230 210 -107 50 -200 55 -296 17 -83 -33 -124 -57 -187 -109 -53
-44 -67 -42 -49 7 15 42 16 197 1 251 -16 57 -52 135 -83 175 -23 32 -34 61
-21 61 2 0 22 -6 42 -14 82 -29 130 -36 187 -25 82 15 146 46 193 95 57 59 69
57 77 -13 13 -104 109 -270 168 -288 9 -4 19 -14 22 -23 4 -11 41 -31 93 -52
112 -44 167 -45 283 -5 69 23 95 38 139 79 84 81 134 153 143 211 27 162 18
234 -38 315 -19 27 -34 52 -34 56 0 12 -62 79 -89 95 -34 21 -31 48 11 79 66
49 178 168 178 188 0 12 4 23 9 26 5 3 16 34 26 69 26 98 11 263 -32 337 -12
19 -24 46 -28 60 -4 14 -14 33 -22 42 -8 9 -13 20 -10 25 3 4 52 5 108 2 57
-3 119 -2 139 3 46 12 121 46 142 65 9 8 34 21 55 28 l38 13 50 -52 c30 -32
65 -58 87 -65z m-908 90 c3 -5 18 -12 33 -15 88 -21 191 -112 249 -219 39 -71
39 -73 39 -182 -1 -105 -2 -113 -35 -178 -40 -82 -119 -158 -205 -202 -57 -28
-67 -30 -180 -30 -116 0 -122 1 -189 34 -150 74 -235 214 -236 388 0 45 5 85
10 88 6 3 10 13 10 22 0 32 56 125 106 177 50 51 109 88 167 102 15 3 30 10
33 15 3 5 47 9 99 9 52 0 96 -4 99 -9z m2616 -8 c229 -86 329 -326 224 -539
-66 -135 -228 -217 -395 -200 -69 7 -96 18 -171 69 -146 101 -199 299 -124
465 59 129 200 218 351 221 44 1 86 -5 115 -16z m-3723 -135 c87 -44 152 -110
191 -190 49 -104 43 -196 -20 -314 -18 -33 -115 -124 -132 -124 -5 0 -17 -6
-25 -14 -9 -7 -39 -21 -68 -30 -119 -39 -258 6 -358 116 -34 38 -57 74 -61 95
-3 18 -10 36 -15 39 -5 3 -9 46 -9 95 0 80 3 97 31 152 34 69 92 134 141 158
88 43 106 48 183 48 71 1 87 -3 142 -31z m4861 -22 c67 -34 171 -137 199 -196
52 -110 51 -243 -3 -346 -35 -68 -115 -146 -183 -180 -47 -24 -71 -29 -153
-32 -73 -3 -110 0 -150 14 -29 9 -55 20 -58 23 -3 3 -24 19 -46 34 -66 45
-120 120 -147 204 -18 54 -23 192 -9 209 5 5 14 27 20 49 14 51 94 151 150
188 77 52 137 68 237 64 73 -3 100 -9 143 -31z m-2780 -165 c9 -5 37 -19 62
-31 53 -25 141 -116 163 -168 29 -70 49 -151 44 -179 -14 -74 -38 -137 -70
-180 -47 -64 -71 -85 -142 -123 -53 -28 -69 -32 -145 -33 -76 0 -92 3 -154 33
-128 61 -200 152 -215 267 -10 78 2 175 26 213 69 109 135 170 201 184 17 4
34 12 37 17 8 12 170 12 193 0z m3849 -126 c15 -8 33 -15 40 -15 27 0 124
-104 149 -159 14 -31 29 -64 35 -73 5 -10 9 -48 9 -85 0 -104 -40 -194 -122
-272 -23 -23 -47 -41 -54 -41 -6 0 -17 -6 -23 -14 -18 -21 -145 -49 -189 -41
-62 11 -104 28 -159 63 -72 46 -106 83 -142 157 -27 57 -31 75 -31 150 0 75 3
91 31 142 37 70 109 147 158 168 20 9 45 20 56 25 51 23 194 20 242 -5z
m-2895 -194 c69 -32 167 -113 192 -159 60 -108 61 -111 61 -242 0 -118 -2
-128 -29 -185 -30 -59 -153 -195 -178 -195 -6 0 -19 -6 -27 -13 -36 -30 -107
-47 -200 -47 -86 0 -99 3 -169 36 -85 40 -176 124 -214 197 -28 54 -57 161
-58 212 0 50 33 156 67 215 79 139 247 225 423 215 46 -2 85 -12 132 -34z
m-546 -5 c6 -16 -23 -66 -37 -66 -5 0 -9 18 -9 40 0 34 3 40 20 40 11 0 23 -6
26 -14z m-2088 -140 c69 -44 110 -101 135 -184 13 -47 14 -61 1 -108 -24 -93
-91 -176 -169 -209 -57 -24 -158 -23 -218 4 -133 58 -204 225 -149 351 33 75
132 162 198 173 63 11 164 -3 202 -27z m-1908 -27 c68 -15 133 -64 169 -127
26 -46 31 -64 31 -122 0 -123 -59 -205 -179 -249 -70 -25 -82 -26 -141 -4
-121 44 -190 134 -190 249 0 54 5 71 35 121 39 65 104 118 163 132 50 12 60
12 112 0z m760 -18 c146 -76 220 -188 220 -335 0 -128 -73 -245 -205 -326 -37
-23 -49 -25 -160 -25 -132 1 -150 7 -240 87 -144 126 -153 358 -20 509 40 45
127 98 179 109 69 15 179 6 226 -19z m4656 -12 c69 -42 151 -138 160 -186 3
-18 10 -36 15 -39 12 -7 12 -170 0 -192 -6 -9 -20 -38 -32 -64 -27 -58 -75
-106 -153 -152 -58 -35 -63 -36 -162 -36 -121 0 -165 16 -243 86 -158 142
-159 378 -4 529 71 69 153 95 289 92 62 -2 78 -7 130 -38z m-5122 1 c12 -11
-20 -60 -39 -60 -7 0 -23 12 -35 27 -20 26 -21 28 -3 41 18 13 60 9 77 -8z
m2393 -94 c72 -39 141 -118 174 -196 9 -23 14 -67 13 -125 -1 -81 -5 -96 -34
-150 -42 -78 -81 -119 -158 -162 -82 -46 -187 -56 -273 -25 -185 65 -293 255
-244 430 10 34 24 67 31 73 8 6 14 16 14 21 0 17 63 88 99 110 75 48 120 58
226 55 88 -2 106 -6 152 -31z m3582 -56 c105 -20 171 -100 179 -216 6 -94 -19
-147 -97 -207 -55 -41 -58 -42 -136 -42 -70 0 -85 3 -121 27 -83 54 -143 161
-130 232 13 68 62 142 118 179 51 32 112 41 187 27z m-2903 -99 c55 -39 78
-77 78 -131 0 -64 -38 -121 -104 -155 -70 -36 -174 8 -211 90 -35 77 -20 138
48 193 32 27 46 31 94 32 46 0 63 -5 95 -29z m3679 -36 c85 -42 134 -90 174
-172 28 -55 31 -72 31 -151 0 -58 -5 -103 -15 -126 -58 -137 -200 -236 -340
-236 -187 0 -365 177 -365 361 0 47 25 134 52 185 25 45 132 141 168 149 16 4
32 11 35 16 4 5 47 9 98 9 85 0 97 -3 162 -35z m513 -134 c88 -45 136 -152
100 -223 -26 -49 -64 -87 -110 -107 -58 -26 -58 -26 -121 3 -62 29 -94 73
-103 139 -19 139 116 248 234 188z m-6173 -55 c17 -9 35 -16 41 -16 17 0 128
-105 144 -136 8 -16 19 -36 26 -44 19 -25 44 -124 44 -177 0 -127 -97 -279
-220 -343 -135 -70 -332 -41 -443 66 -84 80 -133 202 -125 312 11 150 153 317
303 356 40 10 200 -2 230 -18z m-1181 -11 c4 -11 -1 -15 -19 -15 -18 0 -23 4
-19 15 4 8 12 15 19 15 7 0 15 -7 19 -15z m5621 -74 c3 -5 20 -13 38 -17 41
-9 128 -64 164 -104 15 -17 41 -55 57 -83 26 -46 30 -65 34 -155 4 -99 3 -105
-27 -166 -78 -159 -249 -249 -410 -217 -88 18 -182 80 -236 156 -57 80 -66
108 -66 217 0 100 18 153 78 226 41 50 126 108 193 133 49 18 165 24 175 10z
m-5657 -31 c9 -5 34 -17 55 -26 43 -19 157 -126 157 -148 0 -7 6 -19 13 -25 8
-6 20 -42 27 -80 10 -56 11 -82 1 -133 -26 -131 -62 -187 -162 -254 -137 -91
-299 -82 -432 24 -54 44 -76 75 -108 154 -49 119 -37 219 39 336 37 56 125
127 173 137 16 4 31 11 34 16 8 12 180 12 203 -1z m430 -167 c50 -4 86 -2 113
7 48 16 59 7 59 -52 0 -44 -10 -49 -68 -29 -34 11 -52 12 -76 3 -17 -5 -52
-13 -77 -16 -41 -6 -48 -4 -61 16 -8 13 -15 38 -16 57 -1 31 1 33 26 27 15 -3
60 -9 100 -13z m4705 0 c5 -3 6 -51 2 -108 -7 -122 8 -198 55 -280 49 -85 117
-147 215 -195 83 -42 96 -55 74 -77 -20 -20 -62 -127 -66 -170 -6 -48 -17 -53
-74 -29 -50 21 -183 22 -254 2 -109 -31 -188 -88 -250 -181 -56 -83 -68 -135
-60 -244 3 -52 13 -113 22 -136 28 -77 28 -85 -2 -85 -15 0 -56 -8 -91 -17
-43 -12 -67 -14 -74 -7 -6 6 -17 46 -25 90 -9 46 -26 94 -40 116 -14 21 -25
42 -25 47 0 13 65 68 108 90 48 25 127 116 157 183 33 72 43 205 21 267 -9 24
-16 54 -16 66 0 12 -6 28 -14 34 -20 17 -26 70 -9 87 8 7 31 18 51 23 24 7 57
31 95 69 47 47 63 72 83 131 30 88 27 121 -22 221 -40 83 -43 107 -11 113 25
6 137 -2 150 -10z m-306 -23 c42 -20 79 -57 111 -111 17 -28 22 -53 22 -104 0
-79 -23 -134 -76 -178 -36 -30 -124 -67 -161 -67 -59 0 -172 67 -212 125 -11
17 -25 54 -32 83 -9 46 -8 61 6 100 56 150 208 218 342 152z m-4259 -145 c36
-30 72 -100 72 -139 0 -44 -30 -96 -71 -123 -32 -21 -51 -25 -105 -25 -60 0
-68 2 -99 32 -70 68 -67 178 7 245 35 32 43 35 102 35 54 0 69 -4 94 -25z
m1394 -6 c110 -24 233 -132 274 -240 12 -29 17 -75 18 -134 0 -78 -4 -97 -27
-146 -36 -72 -106 -140 -187 -180 -60 -30 -73 -33 -165 -33 -121 -1 -172 19
-251 100 -140 142 -155 342 -36 489 59 74 153 134 225 145 77 11 91 11 149 -1z
m5388 -170 c8 -4 36 -18 63 -30 56 -27 118 -92 154 -163 23 -45 26 -63 26
-151 0 -87 -4 -107 -26 -150 -51 -102 -138 -167 -261 -199 -54 -14 -64 -14
-130 3 -163 43 -258 138 -289 290 -14 64 -14 79 0 134 9 34 22 69 29 78 8 8
14 20 14 25 0 18 88 109 121 126 64 32 104 47 134 51 39 6 145 -3 165 -14z
m-5908 -96 c-2 -32 -7 -80 -11 -108 -6 -46 -9 -50 -31 -47 -138 20 -193 -8
-274 -138 -30 -49 -34 -60 -29 -105 3 -27 15 -63 26 -79 15 -21 18 -33 10 -45
-15 -25 -74 -61 -99 -61 -21 0 -22 4 -22 78 0 107 -8 145 -54 237 -51 100
-111 161 -230 232 -49 28 -59 51 -34 72 11 9 32 -1 103 -49 49 -33 97 -60 107
-60 9 0 29 -6 44 -13 35 -17 119 -20 203 -8 65 9 199 64 199 82 0 9 78 69 90
69 4 0 5 -26 2 -57z m4967 13 c142 -68 221 -195 221 -351 0 -46 -4 -86 -9 -90
-5 -3 -13 -20 -17 -38 -7 -32 -75 -128 -111 -157 -10 -8 -50 -31 -87 -50 -64
-32 -76 -34 -155 -33 -58 1 -96 6 -116 17 -16 9 -34 16 -40 16 -25 0 -126 93
-158 147 -40 66 -63 171 -55 254 10 106 103 229 212 284 106 52 210 53 315 1z
m-1919 -43 c72 -27 156 -80 187 -117 83 -101 116 -246 78 -342 -58 -147 -154
-233 -285 -258 -61 -12 -80 -11 -154 3 -69 14 -93 24 -138 58 -182 137 -208
371 -60 543 90 106 256 156 372 113z m-3826 -65 c101 -29 191 -111 245 -222
32 -65 33 -70 28 -164 -3 -71 -10 -107 -24 -133 -68 -125 -167 -209 -270 -227
-56 -10 -173 -3 -218 13 -94 33 -164 99 -215 200 -32 66 -34 76 -35 170 0 95
2 103 33 160 80 143 191 212 346 214 38 1 87 -4 110 -11z m5166 -47 c0 -22
-15 -35 -30 -26 -7 4 -7 13 0 26 14 25 30 25 30 0z m-135 -67 c59 -24 93 -54
110 -96 19 -49 19 -78 -1 -128 -24 -60 -84 -100 -150 -100 -44 0 -58 5 -91 32
-107 89 -94 222 29 282 64 30 57 30 103 10z m-4270 -40 c39 -29 75 -97 75
-140 0 -36 -24 -76 -66 -114 -36 -31 -40 -32 -108 -28 -84 4 -114 22 -145 86
-27 55 -26 87 2 141 49 91 162 117 242 55z m-1560 -163 c3 -5 20 -13 37 -17
86 -18 189 -117 232 -220 53 -128 46 -228 -23 -334 -79 -122 -170 -182 -284
-188 -133 -8 -241 30 -322 114 -73 77 -108 162 -108 267 -1 74 2 89 33 150 19
38 55 89 85 118 45 44 75 62 175 107 31 13 167 16 175 3z m1769 -50 c4 -5 49
-30 101 -55 52 -25 95 -51 95 -58 0 -6 -12 -29 -26 -49 -26 -38 -37 -70 -56
-164 -6 -27 -14 -58 -19 -67 -12 -23 -11 -48 1 -48 6 0 10 -7 10 -14 0 -22 74
-161 104 -197 14 -17 26 -36 26 -42 0 -12 -69 -40 -144 -58 -21 -5 -52 -17
-68 -25 -36 -18 -48 -11 -25 14 10 10 17 22 17 26 0 5 7 22 15 39 23 51 38
118 38 172 -1 85 -18 183 -36 203 -9 10 -17 24 -17 30 0 6 -38 51 -84 99 -92
97 -89 85 -39 166 20 32 28 37 63 37 21 0 41 -4 44 -9z m3686 -26 c124 -47
219 -164 241 -294 16 -103 -25 -218 -108 -297 -120 -116 -255 -139 -397 -68
-162 82 -238 225 -206 394 7 38 19 75 27 81 7 6 13 17 13 23 0 28 106 124 160
146 30 12 64 26 75 30 41 17 128 10 195 -15z m-3007 -17 c29 -12 71 -40 95
-62 132 -123 164 -277 90 -435 -42 -88 -158 -174 -257 -190 -250 -40 -458 167
-419 418 20 131 117 233 268 281 53 17 169 11 223 -12z m-870 -141 c108 -61
166 -141 186 -259 29 -168 -47 -318 -204 -405 -46 -25 -58 -27 -160 -27 -132
1 -159 11 -243 88 -83 77 -123 155 -129 254 -6 91 5 140 49 208 45 70 66 92
127 131 80 52 87 53 202 50 100 -3 109 -5 172 -40z m2164 -8 c23 -10 46 -19
50 -19 5 0 29 -21 55 -47 132 -137 164 -292 87 -423 -5 -8 -13 -24 -18 -35
-11 -26 -87 -96 -137 -127 -48 -30 -165 -60 -202 -53 -117 25 -165 50 -233
122 -57 59 -85 112 -97 183 -15 81 0 177 36 235 26 43 121 145 135 145 4 0 29
9 54 21 89 41 178 40 270 -2z m3530 -5 c92 -39 111 -50 156 -93 154 -146 155
-369 3 -529 -67 -71 -170 -114 -269 -114 -54 1 -153 28 -178 49 -8 7 -20 13
-26 13 -19 0 -121 119 -145 168 -31 66 -32 238 -2 292 56 101 150 191 211 205
18 3 35 11 38 16 10 16 171 11 212 -7z m-2712 -183 c78 -36 115 -95 115 -183
0 -65 -22 -110 -78 -156 -43 -35 -47 -36 -122 -36 -72 0 -79 2 -120 34 -43 34
-90 115 -90 155 0 70 51 149 119 185 46 25 124 25 176 1z m-3610 -82 c0 -106
-4 -109 -59 -43 l-39 46 39 34 c21 18 44 32 49 30 6 -2 10 -32 10 -67z m-255
-6 c46 -17 143 -85 170 -120 17 -22 42 -70 64 -127 18 -45 21 -152 5 -193 -49
-125 -128 -213 -228 -252 -121 -48 -287 -11 -392 86 -53 49 -82 105 -104 196
-17 72 -17 77 0 133 38 123 109 211 215 266 47 24 67 28 140 28 55 0 100 -6
130 -17z m5578 -44 c119 -63 187 -155 211 -283 26 -143 -63 -307 -207 -380
-60 -30 -102 -39 -180 -38 -52 1 -77 8 -139 39 -100 50 -150 111 -195 238 -54
153 27 331 190 419 78 41 99 46 182 42 61 -3 86 -10 138 -37z m-1189 -200
c101 -56 127 -76 167 -130 40 -54 74 -153 74 -212 0 -53 -27 -143 -58 -192
-38 -60 -71 -92 -137 -133 l-60 -37 -130 0 c-128 0 -131 0 -170 29 -139 103
-195 200 -195 338 0 132 66 240 191 316 83 50 87 51 189 48 68 -2 94 -7 129
-27z m-1856 -82 c59 -27 142 -102 180 -164 37 -59 53 -158 37 -236 -21 -107
-98 -209 -200 -263 -29 -16 -57 -19 -155 -19 -136 0 -169 12 -251 87 -58 54
-90 111 -110 197 -15 67 -15 77 0 138 36 142 148 255 279 283 65 14 163 4 220
-23z m-3303 -2 c117 -62 168 -206 110 -318 -28 -56 -95 -110 -166 -134 -41
-14 -54 -14 -98 -3 -56 14 -146 76 -163 112 -6 13 -19 47 -29 75 -17 50 -17
55 0 110 10 32 29 72 43 89 25 33 86 78 119 87 31 9 156 -3 184 -18z m204 -12
c9 -58 7 -113 -4 -113 -6 0 -19 20 -30 44 -10 24 -23 47 -29 50 -6 4 -11 18
-11 32 0 21 5 24 34 24 31 0 34 -3 40 -37z m941 3 c17 -25 62 -58 143 -104 42
-23 135 -44 197 -43 45 0 138 20 160 35 54 35 80 13 51 -42 -22 -41 -46 -99
-46 -109 0 -6 -9 -18 -20 -28 -20 -18 -21 -17 -63 12 -23 16 -64 38 -92 48
-27 10 -56 24 -64 31 -10 9 -21 10 -39 3 -14 -5 -44 -7 -68 -3 -24 3 -58 1
-81 -6 -98 -32 -146 -51 -181 -75 -42 -29 -53 -19 -24 22 29 41 52 101 52 137
1 17 7 42 15 56 8 14 14 40 15 58 0 39 22 43 45 8z m1065 0 c126 -38 217 -124
265 -251 14 -36 19 -74 18 -140 0 -77 -4 -99 -28 -148 -57 -121 -169 -207
-308 -238 -51 -11 -67 -10 -130 6 -191 48 -316 209 -317 407 0 42 5 80 10 83
6 3 10 14 10 23 0 25 36 88 78 139 38 45 120 99 182 119 49 17 167 16 220 0z
m1935 -57 c102 -27 172 -81 240 -187 29 -45 30 -51 30 -162 0 -98 -3 -121 -22
-155 -32 -61 -86 -119 -150 -161 l-58 -39 -110 1 c-110 2 -145 11 -220 57 -32
19 -105 100 -105 115 0 5 -6 15 -14 21 -22 18 -39 133 -32 204 9 78 38 137 97
196 94 95 234 139 344 110z m-3915 -107 c0 -4 18 -34 40 -67 22 -33 40 -68 40
-78 0 -19 -38 -39 -99 -52 -33 -7 -33 -7 -28 26 21 134 31 179 38 179 5 0 9
-3 9 -8z m3428 -4 c7 -7 12 -21 12 -31 0 -28 -42 -108 -54 -104 -16 5 -28 105
-16 128 12 21 40 25 58 7z m2070 -7 c70 -36 102 -88 102 -165 0 -78 -73 -146
-156 -146 -56 0 -95 20 -131 66 -23 31 -28 47 -28 100 0 56 3 66 30 94 31 33
96 68 128 69 10 1 34 -8 55 -18z m1351 -68 c317 -159 333 -552 30 -746 -114
-73 -293 -71 -412 5 -111 71 -179 149 -192 222 -4 20 -11 39 -16 42 -12 7 -12
201 0 209 5 3 13 20 17 37 15 70 98 166 189 218 89 51 129 61 225 55 72 -5 96
-11 159 -42z m-5654 -44 c5 -5 17 -9 26 -9 30 0 137 -89 168 -140 47 -77 71
-159 71 -244 0 -66 -4 -82 -37 -146 -41 -80 -105 -144 -180 -181 -42 -21 -62
-24 -168 -24 -111 0 -124 2 -170 27 -71 37 -140 108 -177 180 -29 58 -31 71
-32 168 -1 103 0 106 36 171 50 89 137 169 209 191 29 10 63 20 74 22 30 7
169 -5 180 -15z m-515 -153 c-22 -42 -40 -85 -40 -96 0 -23 -20 -70 -31 -70
-19 0 -39 14 -39 27 0 8 -14 34 -31 58 -17 24 -29 50 -27 60 3 19 126 75 163
75 13 0 26 7 29 16 4 9 9 15 11 12 3 -3 -13 -39 -35 -82z m-420 24 c130 -39
243 -140 265 -237 3 -18 11 -35 16 -38 16 -10 10 -166 -8 -215 -62 -167 -207
-270 -380 -270 -39 0 -74 4 -78 9 -3 5 -20 13 -37 17 -18 3 -49 17 -69 29 -38
25 -139 132 -139 149 0 5 -7 17 -15 26 -9 9 -22 52 -30 94 -20 105 -4 185 55
273 103 154 254 213 420 163z m3140 -37 c0 -31 16 -76 39 -113 5 -8 12 -27 15
-42 3 -14 27 -51 52 -82 53 -66 54 -64 -43 -133 -34 -24 -81 -65 -103 -90 -47
-53 -58 -52 -99 12 -34 54 -112 139 -135 148 -25 10 -19 19 45 67 78 58 165
181 193 274 10 30 36 0 36 -41z m2340 29 c29 -19 91 -38 174 -53 62 -10 104
-5 212 28 29 9 56 13 61 10 5 -4 3 -49 -5 -113 -13 -98 -13 -112 2 -154 9 -25
16 -54 16 -66 0 -12 11 -41 24 -66 13 -25 21 -49 17 -54 -15 -21 -211 -80
-236 -70 -8 3 -15 17 -15 31 0 14 -15 63 -34 110 -53 132 -141 221 -255 260
-25 9 -55 22 -65 30 -28 21 -23 71 10 106 30 31 47 31 94 1z m-454 -58 c30
-31 54 -60 54 -65 0 -4 -17 -20 -37 -36 -21 -15 -64 -51 -95 -80 -31 -29 -61
-53 -67 -53 -15 0 -91 70 -91 83 0 5 24 36 53 67 28 32 64 76 79 99 15 22 33
41 39 41 7 0 36 -25 65 -56z m404 -142 c60 -27 120 -80 164 -147 88 -132 88
-276 0 -410 -88 -134 -170 -178 -329 -178 -75 1 -100 5 -148 27 -69 30 -152
109 -185 176 -94 187 -15 432 168 521 25 13 63 26 85 30 67 13 195 3 245 -19z
m-684 -78 c93 -44 110 -171 34 -256 -37 -42 -39 -43 -103 -43 -58 0 -70 4
-104 31 -54 43 -77 93 -68 149 15 106 139 167 241 119z m-1968 -87 c69 -34
141 -105 168 -167 9 -19 22 -50 30 -68 24 -56 18 -167 -14 -249 -32 -86 -86
-146 -176 -200 l-61 -37 -120 0 -120 -1 -66 37 c-98 55 -159 131 -192 239 -52
169 30 356 192 443 76 41 103 46 206 40 73 -5 101 -12 153 -37z m-2365 -78 c6
-24 35 -59 98 -119 49 -47 89 -90 89 -94 0 -5 -36 -44 -80 -87 -44 -43 -80
-85 -80 -92 0 -8 -11 -41 -25 -75 -14 -34 -25 -79 -25 -101 0 -45 -18 -64 -34
-36 -43 72 -184 215 -214 215 -4 0 -17 7 -28 15 -18 14 -15 19 73 103 51 49
97 100 103 113 6 13 22 44 35 68 14 24 25 51 25 59 0 21 33 73 44 69 6 -2 14
-19 19 -38z m3128 27 c186 -45 311 -241 274 -431 -21 -109 -107 -218 -213
-272 -50 -25 -65 -28 -161 -28 -92 0 -113 3 -156 25 -64 31 -129 91 -174 160
l-36 55 0 125 c0 120 1 127 30 179 51 93 145 171 230 192 49 11 146 9 206 -5z
m-4061 -171 c9 -8 21 -15 27 -15 11 0 63 -62 83 -100 19 -36 16 -121 -6 -156
-83 -132 -218 -155 -320 -55 -54 53 -64 75 -65 144 -1 65 10 94 53 133 58 55
106 76 162 70 27 -3 56 -12 66 -21z m5020 -7 c142 -67 215 -153 243 -289 34
-162 -58 -324 -230 -405 -71 -34 -81 -36 -152 -32 -218 13 -391 214 -366 423
13 103 101 234 186 277 58 29 103 47 129 52 47 8 145 -5 190 -26z m1630 -10
c203 -93 277 -313 170 -508 -19 -35 -101 -112 -141 -132 -50 -24 -133 -48
-169 -48 -36 0 -121 24 -165 47 -49 25 -131 111 -154 161 -12 26 -26 55 -32
64 -5 10 -9 49 -9 88 0 58 6 82 31 136 35 74 144 194 176 194 10 0 28 6 39 14
48 34 162 27 254 -16z m-4317 -15 c104 -33 228 -134 260 -212 43 -103 64 -250
37 -266 -5 -3 -10 -16 -10 -28 0 -68 -117 -208 -216 -257 -63 -31 -77 -34
-159 -35 -187 -1 -321 89 -402 270 -24 55 -24 217 0 260 9 17 17 36 17 44 0
53 165 195 262 226 60 18 150 18 211 -2z m-873 -90 c85 -31 159 -99 205 -190
26 -51 30 -68 30 -143 0 -70 -5 -95 -26 -140 -33 -71 -75 -119 -144 -165 -177
-117 -415 -46 -521 155 -15 28 -18 58 -18 150 0 105 2 119 25 157 53 88 105
134 199 176 49 22 191 22 250 0z m-1197 -89 c10 -11 -24 -54 -56 -71 l-30 -15
7 33 c3 17 11 38 17 46 12 13 51 18 62 7z m352 -88 c124 -57 225 -206 225
-332 0 -102 -68 -220 -166 -290 -79 -57 -107 -65 -217 -65 -72 0 -96 4 -134
23 -71 35 -147 110 -178 175 -24 51 -28 71 -29 158 -1 90 2 105 26 151 55 104
154 184 257 205 57 12 161 0 216 -25z m3818 7 c4 -3 2 -12 -4 -19 -7 -9 -7
-19 0 -33 26 -48 3 -101 -45 -101 -20 0 -24 5 -24 33 0 18 11 48 25 69 14 20
25 42 25 47 0 12 13 14 23 4z m1625 -111 c4 -40 -13 -48 -63 -32 l-37 12 28
29 c38 39 68 36 72 -9z m-3276 -27 c27 -30 54 -55 59 -55 11 0 93 -56 108 -74
10 -11 9 -16 -1 -23 -22 -14 -78 -100 -78 -121 0 -11 -7 -39 -16 -63 -9 -27
-13 -57 -9 -78 8 -42 -4 -51 -70 -51 -152 -1 -276 -48 -358 -135 -23 -25 -40
-36 -44 -29 -5 6 -16 13 -25 17 -9 3 -29 27 -44 53 -35 59 -29 69 62 105 89
36 119 54 176 103 54 47 118 128 118 149 0 8 9 36 21 62 20 45 23 65 27 158 1
20 7 37 13 37 6 0 33 -25 61 -55z m812 -12 c83 -102 132 -135 261 -176 38 -12
72 -15 135 -10 167 12 155 15 156 -37 2 -122 36 -197 111 -243 56 -35 109 -50
176 -49 26 0 47 -4 47 -9 0 -6 -9 -27 -19 -47 -18 -35 -31 -84 -46 -174 l-6
-38 -62 0 c-98 -1 -197 -58 -235 -138 -9 -19 -21 -35 -27 -36 -6 -1 -11 28
-13 64 -1 36 -12 94 -23 130 -27 83 -93 194 -123 208 -14 6 -27 20 -31 31 -3
12 -11 21 -17 21 -6 0 -19 6 -27 14 -9 7 -46 25 -83 40 -53 21 -88 27 -175 30
-59 2 -111 5 -115 5 -5 1 -8 18 -8 39 0 20 -7 46 -15 56 -8 11 -15 30 -15 43
0 12 -25 55 -55 94 -31 40 -54 76 -53 81 4 11 189 166 200 167 4 1 32 -29 62
-66z m2391 -72 c102 -37 131 -54 190 -115 33 -34 76 -91 94 -126 33 -62 34
-69 35 -180 0 -111 -1 -117 -34 -183 -86 -174 -287 -288 -453 -256 -63 11
-136 38 -158 56 -8 7 -20 13 -26 13 -6 0 -31 19 -55 43 -100 98 -153 223 -145
343 8 133 35 190 135 293 111 113 285 160 417 112z m-1531 -30 c79 -34 130
-134 112 -219 -6 -26 -46 -75 -90 -110 -9 -7 -38 -16 -65 -19 -39 -4 -58 -1
-94 17 -53 26 -77 57 -100 122 -14 44 -14 50 2 93 22 57 58 94 113 116 57 22
68 22 122 0z m-1184 -61 c29 -15 90 -74 90 -86 0 -5 7 -22 16 -39 24 -45 22
-131 -4 -182 -25 -47 -97 -112 -145 -130 -79 -29 -156 -11 -230 51 -130 111
-114 288 33 381 57 36 177 39 240 5z m-1469 -36 c7 -25 20 -49 34 -58 40 -26
38 -54 -6 -81 -21 -14 -45 -25 -53 -25 -7 0 -19 -7 -26 -15 -6 -8 -22 -17 -33
-21 -28 -8 -105 -79 -135 -122 -12 -19 -34 -57 -48 -85 -36 -71 -53 -90 -71
-76 -7 6 -13 17 -13 24 0 13 -63 109 -87 133 -21 21 -44 70 -35 75 4 3 32 8
64 11 131 16 247 105 351 268 23 37 45 26 58 -28z m-846 -13 c3 -15 24 -47 45
-71 22 -25 40 -50 40 -56 0 -17 -130 -24 -149 -8 -11 10 -9 25 14 93 28 83 39
92 50 42z m3743 -118 c-2 -10 -13 -19 -26 -21 -17 -3 -22 2 -22 17 0 16 6 21
26 21 19 0 25 -5 22 -17z m237 -64 c76 -21 145 -61 195 -112 58 -59 82 -104
105 -197 16 -61 16 -69 -1 -140 -10 -41 -24 -82 -31 -91 -7 -8 -13 -20 -13
-25 0 -20 -96 -107 -154 -138 -127 -70 -223 -69 -354 6 -77 44 -99 67 -153
163 -33 58 -34 64 -34 165 0 95 3 110 28 157 80 154 270 251 412 212z m-2880
-34 c22 -10 51 -23 64 -29 39 -18 119 -104 143 -154 19 -40 22 -63 22 -147 -1
-84 -5 -109 -26 -155 -67 -146 -224 -228 -382 -201 -85 15 -139 43 -199 104
-75 76 -101 141 -102 252 0 76 4 97 24 137 51 100 137 175 241 209 40 14 171
4 215 -16z m-930 -22 c11 -6 40 -19 64 -29 60 -25 162 -127 194 -195 63 -135
45 -336 -41 -437 -9 -11 -24 -29 -33 -40 -36 -43 -129 -103 -188 -122 -133
-42 -283 -15 -381 69 -63 54 -137 148 -146 187 -4 16 -11 35 -17 42 -5 7 -10
56 -9 110 1 144 32 213 138 315 48 46 96 74 194 111 25 9 204 1 225 -11z
m2582 -48 c113 -34 226 -139 268 -250 21 -56 25 -181 7 -218 -6 -12 -18 -38
-27 -58 -26 -59 -109 -143 -171 -175 -53 -27 -66 -29 -168 -29 -97 0 -117 3
-161 24 -56 28 -165 133 -165 160 0 10 -3 21 -7 25 -4 4 -15 28 -25 54 -80
211 118 473 363 481 19 1 58 -6 86 -14z m-844 -54 c78 -38 157 -111 195 -181
35 -62 36 -69 37 -165 0 -95 -2 -103 -33 -160 -108 -194 -312 -265 -499 -174
-60 29 -137 109 -170 177 -25 51 -28 68 -28 157 0 89 3 106 28 159 16 32 46
77 67 100 38 41 124 91 185 107 51 14 171 2 218 -20z m317 -166 c0 -24 -24
-44 -37 -31 -9 8 14 56 27 56 5 0 10 -11 10 -25z m1205 -151 c19 -9 47 -32 62
-52 24 -32 28 -46 28 -104 0 -64 -2 -69 -38 -105 -72 -74 -161 -75 -233 -2
-40 41 -57 100 -46 156 8 35 62 100 96 113 34 14 96 11 131 -6z"/>
</g>
</svg>
