<?xml version="1.0" standalone="no"?>
<!DOCTYPE svg PUBLIC "-//W3C//DTD SVG 20010904//EN"
 "http://www.w3.org/TR/2001/REC-SVG-20010904/DTD/svg10.dtd">
<svg version="1.0" xmlns="http://www.w3.org/2000/svg"
 width="300pt" height="123pt" viewBox="100 0 300 123"
 preserveAspectRatio="xMidYMid meet">
<metadata>
Created by potrace 1.10, written by Peter Selinger 2001-2011
</metadata>
<g transform="translate(0.000000,123.000000) scale(0.100000,-0.100000)"
fill="#fff" stroke="none">
<path d="M2536 1000 l-348 -5 -32 -37 c-47 -54 -42 -113 14 -163 19 -17 41
-21 149 -25 l126 -5 1 -315 c0 -173 4 -332 8 -352 13 -68 93 -107 159 -77 14
6 34 28 46 49 21 37 22 50 21 327 0 158 0 307 0 331 l0 42 115 0 c82 0 124 4
144 14 88 46 79 173 -15 212 -19 8 -35 13 -36 12 -2 -1 -160 -5 -352 -8z m415
-49 c48 -48 35 -118 -29 -150 -14 -8 -68 -11 -143 -10 l-120 1 1 -336 c0 -287
-2 -342 -15 -370 -29 -61 -99 -74 -146 -27 l-29 29 0 354 0 353 -135 0 c-131
0 -135 1 -160 26 -43 42 -32 123 19 147 13 7 153 11 374 11 l354 1 29 -29z"/>
<path d="M1545 994 c-57 -15 -145 -46 -145 -52 0 -4 -14 -13 -31 -21 -40 -18
-138 -118 -164 -168 -11 -21 -24 -41 -30 -45 -5 -4 -6 -8 -1 -8 5 0 4 -6 -2
-12 -24 -31 -41 -188 -29 -273 10 -68 60 -173 111 -232 48 -55 149 -126 211
-148 64 -23 275 -34 275 -14 0 7 3 10 6 6 10 -10 99 28 158 67 88 59 154 147
192 260 72 210 -14 447 -206 568 -85 53 -136 69 -235 73 -49 2 -99 2 -110 -1z
m242 -45 c78 -30 109 -49 171 -111 67 -66 100 -121 124 -207 60 -217 -43 -450
-243 -548 -143 -71 -271 -71 -416 -2 -200 95 -305 325 -248 544 43 165 179
296 351 340 76 19 184 12 261 -16z"/>
<path d="M1527 776 c-182 -66 -245 -314 -115 -461 136 -155 380 -125 476 59
22 42 27 64 27 126 0 123 -58 214 -169 266 -59 27 -157 32 -219 10z m171 -18
c88 -21 148 -77 183 -169 20 -56 21 -66 10 -128 -22 -123 -107 -203 -235 -220
-117 -16 -245 65 -277 176 -32 110 -7 205 73 282 67 65 147 84 246 59z"/>
</g>
</svg>
